<svg xmlns="http://www.w3.org/2000/svg" xmlns:xlink="http://www.w3.org/1999/xlink" viewBox="0,0,256,256" width="48px" height="48px" fill-rule="nonzero"><defs><linearGradient x1="10.017" y1="16.734" x2="38.303" y2="37.529" gradientUnits="userSpaceOnUse" id="color-1"><stop offset="0" stop-color="#000000"></stop><stop offset="1" stop-color="#000000"></stop></linearGradient><linearGradient x1="10.385" y1="16.234" x2="38.671" y2="37.029" gradientUnits="userSpaceOnUse" id="color-2"><stop offset="0" stop-color="#000000"></stop><stop offset="1" stop-color="#000000"></stop></linearGradient></defs><g fill="none" fill-rule="nonzero" stroke="none" stroke-width="1" stroke-linecap="butt" stroke-linejoin="miter" stroke-miterlimit="10" stroke-dasharray="" stroke-dashoffset="0" font-family="none" font-weight="none" font-size="none" text-anchor="none" style="mix-blend-mode: normal"><g transform="scale(5.33333,5.33333)"><path d="M41,24c-0.032,-0.81 -0.007,-2.775 0.02,-4.307c0.013,-0.743 -0.885,-1.122 -1.41,-0.597l-8.441,8.442l0.261,0.62c0.2,0.473 0.247,0.99 0.137,1.519c-0.179,0.863 -0.848,1.591 -1.694,1.838c-1.697,0.496 -3.248,-0.769 -3.248,-2.391c0,-0.226 0.041,-0.46 0.13,-0.74l0.19,-0.604l-6.801,-6.291l-0.606,0.277c-0.674,0.308 -1.396,0.307 -2.056,0.011l-0.576,-0.259l-11.901,10.098c-0.697,0.591 -0.383,1.726 0.518,1.875c1.473,0.245 3.331,0.509 4.477,0.509h29.874c2.85,0 5.201,-2.335 5.123,-5.184c-0.069,-2.587 -1.629,-3.696 -3.997,-4.816z" fill-opacity="0" fill="#c30909" opacity="0.05"></path><path d="M31,18c-1.806,-4.488 -5.097,-8 -10,-8c-5.954,0 -9.062,4.219 -10,10c-4.573,0.423 -8,2.318 -8,7c0,0.739 -0.092,2.081 -0.183,3.231c-0.061,0.766 0.833,1.225 1.419,0.727l12.025,-10.204l-0.162,-0.61c-0.177,-0.663 -0.104,-1.002 0.13,-1.55c0.348,-0.813 1.072,-1.464 1.949,-1.575c1.522,-0.19 2.822,0.996 2.822,2.481c0,0.184 -0.028,0.38 -0.09,0.617l-0.15,0.579l6.857,6.344l0.586,-0.232c0.51,-0.202 0.948,-0.263 1.616,-0.068l0.568,0.166l8.587,-8.586c0.494,-0.494 0.124,-1.34 -0.574,-1.304c-2.256,0.116 -5.853,0.389 -7.4,0.984z" fill-opacity="0" fill="#c30909" opacity="0.05"></path><path d="M42.5,25c0,-0.002 -1.5,-1.998 -1.5,-2c0,-0.886 -0.009,-2.422 -0.015,-3.465c-0.003,-0.408 -0.496,-0.609 -0.785,-0.321l-8.441,8.441l0.131,0.31c0.188,0.446 0.264,0.924 0.224,1.417c-0.107,1.297 -1.097,2.427 -2.373,2.683c-1.923,0.385 -3.616,-1.082 -3.616,-2.938c0,-0.277 0.049,-0.561 0.152,-0.891l0.096,-0.302l-6.324,-5.85l-0.303,0.138c-0.808,0.369 -1.679,0.368 -2.469,0.013l-0.288,-0.13l-12.019,10.198c-0.38,0.322 -0.224,0.94 0.264,1.04c1.325,0.27 3.454,0.657 4.766,0.657h30.672c2.394,0 4.327,-1.943 4.327,-4.337c0.001,-3.237 0.098,-3.58 -2.499,-4.663z" fill-opacity="0" fill="#c30909" opacity="0.07"></path><path d="M30,18c-1.602,-4.562 -4.129,-8 -9,-8c-5.839,0 -9.264,4.263 -10,10c-4.502,0.209 -8,2.446 -8,7c0,0.757 -0.348,0.992 0,2c0.13,0.376 0.008,1.754 0.008,1.754c0,0 0.681,0.012 0.966,-0.229l11.722,-9.946l-0.081,-0.306c-0.127,-0.474 -0.143,-0.82 -0.077,-1.191c0.236,-1.316 1.293,-2.416 2.622,-2.563c1.806,-0.199 3.34,1.215 3.34,2.981c0,0.227 -0.034,0.463 -0.106,0.743l-0.074,0.289l6.406,5.927l0.293,-0.116c0.612,-0.244 1.169,-0.31 1.941,-0.083l0.284,0.082l8.567,-8.567c0.278,-0.278 0.083,-0.754 -0.31,-0.75c-2.105,0.022 -6.757,0.165 -8.501,0.975z" fill-opacity="0" fill="#c30909" opacity="0.07"></path><path d="M41.982,23.342c0.006,-0.114 0.018,-0.226 0.018,-0.342c0,-1.39 -0.41,-2.681 -1.108,-3.77l-8.54,8.54c0.175,0.417 0.273,0.875 0.273,1.356c0,1.933 -1.567,3.5 -3.5,3.5c-1.933,0 -3.5,-1.567 -3.5,-3.5c0,-0.365 0.072,-0.71 0.175,-1.041l-5.846,-5.409c-0.445,0.203 -0.934,0.324 -1.454,0.324c-0.51,0 -0.991,-0.115 -1.428,-0.311l-12.255,10.399c1.397,1.19 3.204,1.912 5.183,1.912h30c3.314,0 6,-2.686 6,-6c0,-2.618 -1.68,-4.838 -4.018,-5.658z" fill="url(#color-1)"></path><path d="M15.132,20.401c-0.078,-0.289 -0.132,-0.587 -0.132,-0.901c0,-1.933 1.567,-3.5 3.5,-3.5c1.933,0 3.5,1.567 3.5,3.5c0,0.302 -0.05,0.589 -0.122,0.868l5.956,5.51c0.4,-0.159 0.834,-0.253 1.291,-0.253c0.341,0 0.663,0.064 0.974,0.155l8.671,-8.671c-1.089,-0.699 -2.38,-1.109 -3.77,-1.109c-1.255,0 -2.429,0.334 -3.447,0.912c-1.336,-4.57 -5.551,-7.912 -10.553,-7.912c-5.738,0 -10.445,4.396 -10.95,10.003c-0.017,-0.001 -0.033,-0.003 -0.05,-0.003c-4.418,0 -8,3.582 -8,8c0,1.356 0.34,2.631 0.935,3.75z" fill="url(#color-2)"></path></g></g></svg>